<svg xmlns="http://www.w3.org/2000/svg" width="534" height="161" viewBox="0 0 534 161">
<g>
<path d="M 0.00 0.00 L 534.00 0.00 L 534.00 161.00 L 0.00 161.00 ZM 400.04 119.81 L 402.08 122.00 L 452.97 122.00 C456.12,122.00 459.08,122.00 461.87,122.00 C498.04,122.02 504.78,122.02 506.74,118.96 C507.34,118.03 507.49,116.80 507.90,115.20 C508.43,113.17 510.23,105.65 511.91,98.50 C513.59,91.35 518.35,71.18 522.48,53.69 C526.62,36.19 530.00,20.34 530.00,18.46 C530.00,18.34 530.00,18.22 530.00,18.10 C530.00,16.97 530.01,16.05 529.65,15.31 C528.10,12.11 519.81,12.17 475.72,12.08 L 425.93 11.98 L 423.51 14.40 C422.17,15.74 420.84,17.88 420.54,19.16 C420.25,20.45 416.84,35.00 412.97,51.50 C405.44,83.58 398.01,116.14 398.00,117.06 C398.00,117.37 398.92,118.61 400.04,119.81 ZM 6.72 115.38 C7.91,116.58 26.84,116.06 27.69,114.80 C28.14,114.14 30.77,109.31 33.53,104.05 L 38.57 94.50 L 75.38 94.50 L 77.09 104.18 C78.03,109.51 79.10,114.35 79.46,114.93 C80.29,116.28 101.00,116.39 101.00,115.05 C101.00,114.53 100.57,111.94 100.04,109.30 C98.79,103.03 92.97,72.01 89.01,50.50 C85.12,29.41 82.98,18.65 82.60,18.26 C81.84,17.51 63.17,17.09 60.68,17.77 C58.95,18.25 57.13,19.89 55.97,22.02 C54.92,23.94 51.52,30.23 48.42,36.00 C45.31,41.78 41.47,48.86 39.89,51.75 C33.63,63.13 31.02,67.97 24.66,80.00 C21.03,86.88 17.15,94.07 16.03,96.00 C11.04,104.66 6.15,114.82 6.72,115.38 ZM 114.00 114.14 C114.00,115.83 114.92,116.00 124.34,116.00 L 134.68 116.00 L 135.86 109.25 C136.50,105.54 140.35,83.60 144.41,60.50 C148.47,37.40 151.59,18.16 151.34,17.75 C151.09,17.34 146.44,17.00 141.01,17.00 C132.47,17.00 131.06,17.24 130.62,18.75 C130.33,19.71 126.94,38.72 123.07,61.00 C119.21,83.28 115.59,103.92 115.03,106.89 C114.46,109.85 114.00,113.11 114.00,114.14 ZM 481.50 101.54 C475.32,104.27 474.38,104.31 461.38,102.42 C436.66,98.82 425.98,84.94 436.14,69.60 C437.82,67.07 439.42,65.00 439.71,65.00 C440.00,65.00 439.52,66.08 438.65,67.41 C435.81,71.74 434.65,78.42 436.02,82.56 C437.30,86.43 443.45,94.00 445.32,94.00 C446.03,94.00 445.99,93.59 445.20,92.80 C443.75,91.35 443.61,88.00 445.00,88.00 C445.55,88.00 446.00,88.90 446.00,90.00 C446.00,91.50 446.67,92.00 448.69,92.00 C451.28,92.00 451.31,91.94 449.44,90.50 C447.69,89.15 447.65,88.88 449.09,87.75 C449.96,87.06 450.50,85.97 450.28,85.32 C449.77,83.81 453.81,75.88 455.90,74.29 C457.32,73.20 457.26,73.06 455.37,73.03 C454.20,73.01 452.49,74.01 451.57,75.25 C450.10,77.21 449.98,77.24 450.60,75.50 C452.28,70.75 451.94,67.15 449.14,59.75 C446.60,53.06 446.43,52.00 447.85,51.98 C449.21,51.96 449.12,51.65 447.38,50.23 C445.21,48.46 441.71,39.63 442.75,38.58 C443.88,37.45 447.00,38.02 447.00,39.36 C447.00,40.11 448.81,45.62 451.01,51.61 C453.22,57.60 455.26,63.14 455.55,63.92 C455.86,64.77 456.42,64.97 456.96,64.42 C457.76,63.60 457.18,58.36 455.50,51.25 C455.07,49.47 455.39,49.00 457.02,49.00 C458.16,49.00 459.02,49.56 458.94,50.25 C458.70,52.20 460.14,56.00 461.12,56.00 C461.60,56.00 462.00,53.78 462.00,51.06 C462.00,48.34 462.44,45.85 462.98,45.51 C463.61,45.12 463.58,44.30 462.91,43.20 C461.29,40.59 463.08,31.61 465.31,31.18 C466.88,30.88 467.06,31.65 466.91,38.17 C466.83,42.20 466.30,46.06 465.75,46.75 C465.07,47.60 465.11,48.00 465.88,48.00 C466.49,48.00 467.00,49.35 467.00,51.00 C467.00,53.60 467.36,54.00 469.75,54.02 C473.26,54.03 474.08,54.68 476.38,59.20 C478.61,63.58 477.98,66.00 474.61,66.00 C472.89,66.00 471.52,67.04 470.01,69.48 C467.69,73.23 468.01,75.00 471.00,75.00 C472.66,75.00 472.86,75.73 472.69,81.25 C472.50,87.43 472.53,87.50 475.35,87.83 C477.60,88.08 478.09,88.55 477.69,90.08 C476.60,94.24 478.66,91.68 480.86,86.14 L 483.19 80.29 L 490.09 78.98 C493.89,78.27 497.00,77.30 497.00,76.84 C497.00,76.38 497.67,76.00 498.50,76.00 C500.56,76.00 500.43,76.78 497.07,84.69 C493.43,93.24 488.70,98.36 481.50,101.54 ZM 265.75 59.25 C265.95,59.66 267.84,60.00 269.96,60.00 L 273.79 60.00 L 275.44 50.75 C276.35,45.66 277.36,40.00 277.67,38.18 C278.41,33.90 279.09,34.83 281.92,44.00 C284.70,53.02 285.41,54.00 289.12,54.00 C291.64,54.00 292.76,52.84 298.25,44.52 C303.81,36.10 306.82,32.64 305.47,36.25 C304.50,38.83 301.25,58.53 301.68,59.25 C301.92,59.66 303.89,60.00 306.06,60.00 C308.23,60.00 310.01,59.66 310.01,59.25 C310.03,58.32 315.76,25.52 316.57,21.75 C317.15,19.02 317.12,19.00 311.80,19.00 L 306.45 19.00 L 298.97 30.49 C294.86,36.82 291.20,41.99 290.84,41.99 C290.48,42.00 288.56,36.83 286.56,30.50 L 282.94 19.00 L 272.33 19.00 L 268.85 38.75 C266.94,49.61 265.54,58.84 265.75,59.25 ZM 194.98 58.25 C194.99,59.62 195.86,60.00 198.93,60.00 L 202.86 60.00 L 203.97 54.25 C205.43,46.69 205.76,44.61 206.80,44.16 C207.19,43.99 207.69,44.05 208.38,44.14 C208.50,44.16 208.63,44.17 208.76,44.19 C211.18,44.47 211.65,45.24 213.56,52.00 L 215.68 59.50 L 220.34 59.80 C222.90,59.97 224.99,59.75 224.99,59.30 C224.98,58.86 223.91,55.09 222.62,50.93 L 220.27 43.36 L 223.70 41.01 C229.70,36.90 231.64,30.07 228.53,24.06 C226.53,20.18 222.44,19.00 211.08,19.00 L 201.45 19.00 L 198.20 37.75 C196.41,48.06 194.96,57.29 194.98,58.25 ZM 368.62 59.19 C368.93,59.69 370.83,59.97 372.84,59.80 L 376.50 59.50 L 377.85 51.75 C379.15,44.33 379.32,44.00 381.91,44.00 C384.41,44.00 384.80,44.60 387.06,51.75 L 389.50 59.50 L 393.75 59.81 C398.79,60.17 398.84,59.94 395.94,50.54 L 393.88 43.88 L 398.00 40.19 C402.55,36.12 404.18,31.49 402.84,26.42 C401.30,20.54 399.05,19.55 386.45,19.15 C375.21,18.79 375.09,18.81 374.54,21.14 C372.77,28.65 368.14,58.41 368.62,59.19 ZM 273.76 114.94 C278.64,117.51 285.52,117.54 290.50,115.00 C290.77,114.86 291.02,114.74 291.25,114.61 C293.54,113.44 294.44,112.99 294.79,113.25 C295.01,113.42 295.01,113.89 295.00,114.67 C295.00,114.79 295.00,114.92 295.00,115.06 C295.00,116.83 295.53,117.08 298.75,116.81 L 302.50 116.50 L 304.20 107.00 C304.40,105.86 304.60,104.82 304.77,103.87 C305.78,98.38 306.24,95.92 305.22,94.82 C304.39,93.93 302.58,93.95 299.30,93.98 C298.60,93.99 297.84,94.00 297.00,94.00 C289.90,94.00 288.00,94.30 288.00,95.42 C288.00,96.20 287.73,97.55 287.39,98.42 C286.89,99.72 287.60,100.00 291.39,100.00 C296.65,100.00 297.16,101.12 293.75,105.14 C290.71,108.70 286.05,110.13 281.54,108.88 C276.37,107.46 274.60,104.19 275.30,97.39 C276.22,88.50 279.89,84.53 288.25,83.38 C292.36,82.82 293.12,83.03 295.30,85.37 C297.26,87.49 298.64,88.00 302.43,88.00 C306.84,88.00 307.09,87.86 306.46,85.75 C304.57,79.41 300.51,76.20 293.29,75.35 C285.91,74.47 278.42,76.98 273.30,82.05 C263.35,91.91 263.59,109.57 273.76,114.94 ZM 222.64 116.23 C222.90,116.65 224.80,117.00 226.86,117.00 C230.30,117.00 230.78,116.64 232.79,112.50 L 234.97 108.00 L 250.62 108.00 L 251.56 112.25 C252.47,116.36 252.64,116.51 256.75,116.81 C259.74,117.02 261.00,116.73 261.00,115.81 C261.00,115.09 259.43,106.18 257.51,96.00 C255.60,85.82 254.03,77.16 254.02,76.75 C254.01,76.34 251.62,76.00 248.71,76.00 L 243.43 76.00 L 232.79 95.73 C226.95,106.58 222.38,115.80 222.64,116.23 ZM 158.55 59.08 C158.90,59.65 160.81,59.97 162.80,59.80 C164.09,59.70 164.93,59.67 165.54,59.29 C166.79,58.51 167.11,56.26 168.41,48.88 L 169.04 45.27 L 175.94 44.77 C184.83,44.14 188.80,41.87 191.89,35.67 C193.99,31.45 194.14,30.41 193.15,27.10 C191.15,20.44 189.29,19.56 176.45,19.15 C165.21,18.79 165.09,18.81 164.55,21.14 C162.46,30.27 158.03,58.24 158.55,59.08 ZM 318.37 115.41 C324.79,118.58 334.15,116.94 339.73,111.69 C343.52,108.12 345.35,103.00 347.48,90.00 C348.33,84.78 349.26,79.49 349.53,78.25 C350.00,76.17 349.69,76.00 345.52,76.00 C343.03,76.00 341.00,76.34 340.99,76.75 C340.99,77.16 339.86,83.57 338.50,91.00 C336.37,102.54 335.64,104.83 333.45,106.75 C328.61,111.00 320.99,108.77 321.01,103.10 C321.01,101.67 321.91,95.32 323.00,89.00 C324.09,82.68 324.99,77.16 324.99,76.75 C325.00,76.34 323.08,76.00 320.74,76.00 L 316.49 76.00 L 314.56 87.25 C311.64,104.25 311.52,106.96 313.51,110.64 C314.46,112.42 316.65,114.56 318.37,115.41 ZM 350.98 115.25 C351.00,116.82 352.27,117.00 363.44,117.00 C370.28,117.00 376.07,116.66 376.30,116.25 C376.53,115.84 377.02,114.26 377.38,112.75 L 378.04 110.00 L 369.69 110.00 C365.09,110.00 361.10,109.77 360.81,109.48 C360.53,109.20 360.74,106.72 361.28,103.98 L 362.27 99.00 L 370.13 99.00 C374.46,99.00 378.01,98.66 378.01,98.25 C378.02,97.84 378.29,96.51 378.62,95.29 C379.19,93.17 378.91,93.08 371.36,92.79 C363.63,92.51 363.50,92.46 363.78,90.00 C364.16,86.65 364.29,84.90 365.23,83.99 C366.26,82.99 368.26,83.00 372.60,83.00 C372.88,83.00 373.16,83.00 373.46,83.00 L 373.52 83.00 C379.06,83.00 381.13,83.00 382.15,81.96 C382.76,81.34 383.00,80.35 383.38,78.75 L 384.04 76.00 L 357.37 76.00 L 354.17 94.75 C352.40,105.06 350.97,114.29 350.98,115.25 ZM 335.00 58.25 C335.00,59.82 336.26,60.00 347.52,60.00 C360.05,60.00 360.05,60.00 361.02,57.43 C361.56,56.02 362.00,54.45 362.00,53.93 C362.00,53.42 358.17,53.00 353.50,53.00 C344.06,53.00 344.05,52.99 345.62,45.12 L 346.25 42.00 L 354.12 42.00 C358.46,42.00 362.01,41.66 362.01,41.25 C362.02,40.84 362.30,39.49 362.63,38.25 C363.22,36.06 363.03,36.00 355.62,36.00 L 348.00 36.00 L 348.01 33.25 C348.05,26.30 348.44,26.00 357.56,26.00 L 357.61 26.00 C363.07,26.00 365.13,26.00 366.15,24.97 C366.76,24.35 367.00,23.35 367.38,21.75 L 368.04 19.00 L 341.36 19.00 L 338.18 37.75 C336.43,48.06 335.00,57.29 335.00,58.25 ZM 232.59 59.15 C232.88,59.62 238.67,60.00 245.45,60.00 C258.53,60.00 259.00,59.82 259.00,54.92 C259.00,53.19 258.22,53.00 250.97,53.00 C241.95,53.00 241.49,52.63 242.76,46.46 L 243.58 42.50 L 251.79 42.21 L 260.00 41.92 L 260.00 36.00 L 253.06 36.00 C249.24,36.00 245.86,35.58 245.54,35.06 C245.22,34.54 245.25,32.29 245.61,30.06 L 246.26 26.00 L 255.01 26.00 C263.25,26.00 263.80,25.87 264.37,23.75 L 264.39 23.68 C264.83,22.05 265.11,20.99 264.73,20.29 C264.01,19.00 260.96,19.00 252.21,19.00 L 252.02 19.00 C239.37,19.00 239.02,19.06 238.53,21.25 C236.76,29.11 232.16,58.45 232.59,59.15 ZM 191.65 116.25 C191.93,116.69 197.86,116.93 204.83,116.78 L 217.50 116.50 L 217.81 113.25 L 218.13 110.00 L 210.12 110.00 C205.72,110.00 201.88,109.61 201.59,109.14 C201.30,108.67 201.39,106.31 201.80,103.89 L 202.55 99.50 L 210.67 99.21 L 218.78 98.92 L 219.22 95.96 L 219.65 93.00 L 212.39 93.00 C208.39,93.00 204.90,92.64 204.63,92.20 C204.36,91.77 204.39,89.53 204.69,87.24 L 205.25 83.07 L 214.38 82.79 L 223.50 82.50 L 223.81 79.25 L 224.13 76.00 L 211.06 76.00 C203.88,76.00 197.99,76.34 197.97,76.75 C197.96,77.16 196.41,86.04 194.55,96.47 C192.68,106.90 191.38,115.80 191.65,116.25 ZM 158.52 116.03 C158.85,116.57 164.54,117.00 171.44,117.00 C183.38,117.00 183.79,116.93 184.37,114.75 C185.61,110.12 185.42,110.00 176.50,110.00 C170.36,110.00 168.00,109.65 168.00,108.75 C168.01,108.06 169.13,101.22 170.50,93.55 C170.64,92.80 170.77,92.08 170.89,91.39 C172.83,80.58 173.41,77.35 172.20,76.39 C171.68,75.98 170.83,75.99 169.63,76.00 C169.45,76.00 169.26,76.00 169.07,76.00 C166.19,76.00 165.00,76.47 164.61,77.75 C163.20,82.51 158.00,115.18 158.52,116.03 ZM 71.99 75.25 L 72.00 78.00 L 60.00 78.00 C53.40,78.00 48.00,77.74 48.00,77.43 C48.00,76.61 61.57,50.11 64.03,46.14 C65.17,44.29 66.33,42.99 66.59,43.26 C67.27,43.93 71.98,71.86 71.99,75.25 ZM 318.51 58.81 C318.82,59.66 320.31,60.01 322.74,59.81 L 326.50 59.50 L 330.05 39.50 L 333.60 19.50 L 329.70 19.19 C327.55,19.02 325.55,19.12 325.24,19.42 C324.34,20.33 318.00,57.40 318.51,58.81 ZM 497.21 50.89 C496.07,51.50 493.86,51.99 492.32,51.97 C489.46,51.93 485.00,49.01 485.00,47.17 C485.00,46.62 484.44,45.94 483.75,45.66 C483.00,45.36 482.94,45.13 483.61,45.08 C484.23,45.04 484.52,43.95 484.27,42.65 C483.63,39.28 490.10,34.03 494.68,34.20 C496.51,34.27 498.00,34.70 498.00,35.16 C498.00,35.62 498.65,36.00 499.44,36.00 C501.31,36.00 504.01,39.86 503.97,42.47 C503.93,44.75 500.36,49.20 497.21,50.89 ZM 179.71 36.95 C176.56,38.05 171.69,38.35 170.84,37.50 C170.56,37.23 170.79,34.53 171.34,31.50 L 172.33 26.00 L 176.92 26.02 C179.44,26.02 181.98,26.36 182.57,26.77 C186.14,29.21 184.42,35.31 179.71,36.95 ZM 219.04 35.46 C216.92,37.38 208.60,38.78 207.73,37.36 C207.43,36.89 207.66,34.14 208.23,31.25 L 209.27 26.00 L 213.20 26.00 C215.36,26.00 218.00,26.47 219.07,27.04 C221.61,28.40 221.60,33.15 219.04,35.46 ZM 392.47 36.03 C391.62,36.73 388.70,37.51 385.97,37.78 C385.82,37.79 385.67,37.81 385.53,37.82 C383.33,38.03 382.11,38.15 381.51,37.60 C380.77,36.91 381.01,35.17 381.55,31.26 C381.58,31.06 381.61,30.85 381.64,30.64 C382.27,26.02 382.28,26.00 386.20,26.00 C391.93,26.00 394.00,27.44 394.00,31.41 C394.00,33.25 393.31,35.33 392.47,36.03 ZM 248.61 95.37 L 249.28 101.00 L 244.64 101.00 C242.09,101.00 240.00,100.54 240.00,99.97 C240.00,99.41 241.40,96.17 243.11,92.79 C246.66,85.75 247.53,86.16 248.61,95.37 ZM 276.14 147.09 C275.92,153.10 277.76,153.68 278.19,147.75 C278.47,143.97 278.77,143.50 281.00,143.50 C283.21,143.50 283.56,144.02 284.06,148.00 L 284.63 152.50 L 285.06 148.00 C285.45,143.98 285.77,143.50 288.00,143.50 C290.21,143.50 290.56,144.01 291.06,148.00 C291.53,151.86 291.71,152.14 292.32,150.00 C292.71,148.62 292.65,146.15 292.19,144.50 C291.40,141.70 291.03,141.50 286.42,141.45 C276.76,141.34 276.33,141.58 276.14,147.09 ZM 461.46 74.96 C464.70,78.34 465.00,78.50 465.00,76.85 C465.00,76.21 463.18,73.96 460.96,71.85 C457.04,68.12 457.00,68.00 459.46,68.00 C460.86,68.00 462.03,67.89 462.06,67.75 C462.87,64.50 462.86,59.00 462.05,59.00 C461.47,59.00 461.00,60.69 461.00,62.76 C461.00,66.34 460.84,66.52 457.75,66.51 C455.19,66.50 454.44,66.95 454.20,68.63 C453.98,70.16 454.55,70.92 456.22,71.34 C457.51,71.66 459.86,73.29 461.46,74.96 ZM 457.59 44.50 C458.07,46.41 457.83,47.00 456.58,47.00 C454.73,47.00 454.56,46.61 453.07,39.20 C452.98,38.77 452.90,38.38 452.82,38.01 C452.14,34.64 451.92,33.53 452.34,33.16 C452.55,32.98 452.92,32.99 453.47,33.00 C453.59,33.00 453.72,33.00 453.86,33.00 C455.32,33.00 455.86,34.00 456.34,37.50 C456.68,39.97 457.24,43.12 457.59,44.50 ZM 462.40 91.84 C462.75,92.40 465.61,92.75 468.76,92.62 C473.14,92.43 474.42,92.04 474.17,90.95 C473.63,88.63 471.75,87.89 467.63,88.38 C463.44,88.88 461.40,90.23 462.40,91.84 ZM 262.20 143.45 C263.72,145.17 265.00,145.42 265.00,144.00 C265.00,143.45 265.67,143.00 266.50,143.00 C267.33,143.00 268.00,142.55 268.00,142.00 C268.00,141.45 267.36,141.00 266.58,141.00 C265.80,141.00 264.98,140.44 264.75,139.76 C264.45,138.86 263.86,139.00 262.61,140.24 C261.18,141.67 261.11,142.22 262.20,143.45 ZM 465.14 96.79 C472.04,98.04 474.52,98.18 473.60,97.27 C472.37,96.03 461.56,94.15 460.64,95.01 C460.17,95.45 462.20,96.25 465.14,96.79 ZM 449.43 32.53 C448.37,33.36 446.66,34.52 445.63,35.11 C442.75,36.78 444.06,34.05 447.30,31.63 C450.34,29.36 452.38,30.22 449.43,32.53 ZM 460.88 28.98 C463.13,30.19 460.73,30.81 457.75,29.78 C454.46,28.65 453.99,26.56 457.25,27.55 C458.49,27.93 460.12,28.58 460.88,28.98 ZM 456.62 83.20 C457.02,83.83 457.57,83.71 458.11,82.86 C459.24,81.08 459.23,79.00 458.11,79.00 C456.89,79.00 455.85,81.94 456.62,83.20 ZM 320.00 141.50 C320.00,142.33 320.89,143.00 322.00,143.00 C324.38,143.00 324.65,141.46 322.42,140.61 C320.18,139.75 320.00,139.82 320.00,141.50 ZM 490.00 40.11 C490.00,40.60 490.90,41.00 492.00,41.00 C493.95,41.00 494.61,39.94 493.40,38.74 C492.60,37.93 490.00,38.98 490.00,40.11 ZM 491.00 36.00 C491.00,36.55 491.45,37.00 492.00,37.00 C492.55,37.00 493.00,36.55 493.00,36.00 C493.00,35.45 492.55,35.00 492.00,35.00 C491.45,35.00 491.00,35.45 491.00,36.00 Z" fill="rgb(2,2,3)"/>
<path d="M 6.72 115.38 C6.15,114.82 11.04,104.66 16.03,96.00 C17.15,94.07 21.03,86.88 24.66,80.00 C31.02,67.97 33.63,63.13 39.89,51.75 C41.47,48.86 45.31,41.78 48.42,36.00 C51.52,30.23 54.92,23.94 55.97,22.02 C57.13,19.89 58.95,18.25 60.68,17.77 C63.17,17.09 81.84,17.51 82.60,18.26 C82.98,18.65 85.12,29.41 89.01,50.50 C90.89,60.75 93.20,73.15 95.24,84.01 C94.31,79.09 93.25,73.51 92.06,67.20 C90.87,60.97 90.30,61.12 89.52,67.87 C89.06,71.77 87.99,74.98 86.44,77.08 C85.13,78.85 83.13,83.11 81.98,86.55 C80.56,90.84 79.30,92.95 77.95,93.30 C76.67,93.64 76.00,94.67 76.00,96.32 C76.00,97.19 76.21,98.94 76.54,101.05 L 75.38 94.50 L 38.57 94.50 L 33.53 104.05 C30.77,109.31 28.14,114.14 27.69,114.80 C26.84,116.06 7.91,116.58 6.72,115.38 ZM 400.04 119.81 C398.92,118.61 398.00,117.37 398.00,117.06 C398.01,116.14 405.44,83.58 412.97,51.50 C416.84,35.00 420.25,20.45 420.54,19.16 C420.84,17.88 422.17,15.74 423.51,14.40 L 425.93 11.98 L 475.72 12.08 C490.73,12.11 501.60,12.12 509.46,12.25 C507.46,12.31 505.23,12.38 502.72,12.46 C490.50,12.87 479.74,13.60 478.82,14.10 C477.89,14.59 465.74,15.01 451.82,15.02 C437.89,15.02 425.94,15.38 425.26,15.82 C424.22,16.48 418.02,41.41 405.33,96.00 C400.52,116.70 400.49,116.89 401.84,118.24 C402.74,119.14 408.58,119.59 422.30,119.81 C432.86,119.98 441.93,120.54 442.45,121.06 C443.00,121.61 456.07,122.00 473.63,122.00 C474.23,122.00 474.82,122.00 475.41,122.00 C471.43,122.01 466.94,122.00 461.87,122.00 C459.08,122.00 456.12,122.00 452.97,122.00 L 402.08 122.00 ZM 71.99 75.25 C71.98,71.86 67.27,43.93 66.59,43.26 C66.33,42.99 65.17,44.29 64.03,46.14 C61.57,50.11 48.00,76.61 48.00,77.43 C48.00,77.74 53.40,78.00 60.00,78.00 L 72.00 78.00 ZM 463.00 105.00 C455.39,107.44 441.66,103.43 435.46,96.95 C432.24,93.60 433.19,92.89 436.61,96.10 C439.60,98.91 454.92,103.98 460.80,104.10 C464.64,104.18 465.05,104.35 463.00,105.00 ZM 100.99 115.10 C100.89,114.23 100.02,109.45 98.11,99.23 C99.01,103.98 99.70,107.58 100.04,109.30 C100.57,111.94 101.00,114.53 101.00,115.05 C101.00,115.07 101.00,115.08 100.99,115.10 ZM 528.36 14.05 C529.01,14.40 529.41,14.82 529.65,15.31 C530.01,16.05 530.00,16.97 530.00,18.10 C530.00,18.22 530.00,18.34 530.00,18.46 C530.00,16.36 529.56,15.12 528.36,14.05 ZM 82.38 115.63 C85.25,115.91 89.75,116.03 93.61,115.98 C89.76,116.06 85.26,115.94 82.38,115.63 ZM 506.23 119.58 C506.29,119.51 506.35,119.44 506.41,119.36 C507.16,118.38 507.43,117.04 507.90,115.20 C507.49,116.80 507.34,118.03 506.74,118.96 C506.60,119.18 506.43,119.39 506.23,119.58 ZM 79.09 113.83 C79.24,114.36 79.37,114.76 79.48,114.96 C79.47,114.95 79.47,114.94 79.46,114.93 C79.37,114.79 79.24,114.41 79.09,113.83 Z" fill="rgb(19,65,214)"/>
<path d="M 114.00 114.14 C114.00,113.11 114.46,109.85 115.03,106.89 C115.59,103.92 119.21,83.28 123.07,61.00 C126.94,38.72 130.33,19.71 130.62,18.75 C131.06,17.24 132.47,17.00 141.01,17.00 C146.44,17.00 151.09,17.34 151.34,17.75 C151.59,18.16 148.47,37.40 144.41,60.50 C140.35,83.60 136.50,105.54 135.86,109.25 L 134.68 116.00 L 124.34 116.00 C114.92,116.00 114.00,115.83 114.00,114.14 ZM 100.99 115.10 C100.79,115.61 97.53,115.90 93.61,115.98 C89.75,116.03 85.25,115.91 82.38,115.63 L 82.38 115.63 C80.81,115.46 79.72,115.24 79.48,114.96 C79.37,114.76 79.24,114.36 79.09,113.83 C78.59,111.99 77.81,108.23 77.09,104.18 L 76.54 101.05 C76.21,98.94 76.00,97.19 76.00,96.32 C76.00,94.67 76.67,93.64 77.95,93.30 C79.30,92.95 80.56,90.84 81.98,86.55 C83.13,83.11 85.13,78.85 86.44,77.08 C87.99,74.98 89.06,71.77 89.52,67.87 C90.30,61.12 90.87,60.97 92.06,67.20 C93.25,73.51 94.31,79.09 95.24,84.01 L 95.24 84.01 C96.30,89.68 97.29,94.93 98.11,99.23 C100.02,109.45 100.89,114.23 100.99,115.10 ZM 506.23 119.58 C504.04,121.65 497.78,121.96 475.41,122.00 C474.82,122.00 474.23,122.00 473.63,122.00 C456.07,122.00 443.00,121.61 442.45,121.06 C441.93,120.54 432.86,119.98 422.30,119.81 C415.81,119.70 411.09,119.55 407.82,119.32 C415.90,119.66 433.65,119.91 453.56,119.94 C490.55,119.99 501.99,119.71 503.25,118.75 C504.33,117.92 506.93,108.76 510.97,91.50 C514.31,77.20 519.51,54.98 522.53,42.12 C525.54,29.26 528.00,18.60 528.00,18.44 C528.00,18.28 527.29,17.44 526.43,16.57 C525.04,15.19 519.07,15.00 475.68,15.02 C448.93,15.02 426.45,15.37 425.30,15.80 C426.31,15.37 438.11,15.02 451.82,15.02 C465.74,15.01 477.89,14.59 478.82,14.10 C479.74,13.60 490.50,12.87 502.72,12.46 C505.23,12.38 507.46,12.31 509.46,12.25 C521.13,12.45 526.18,12.90 528.36,14.05 C529.56,15.12 530.00,16.36 530.00,18.46 C530.00,20.34 526.62,36.19 522.48,53.69 C518.35,71.18 513.59,91.35 511.91,98.50 C510.23,105.65 508.43,113.17 507.90,115.20 C507.43,117.04 507.16,118.38 506.41,119.36 C506.35,119.44 506.29,119.51 506.23,119.58 ZM 497.21 50.89 C499.64,49.59 502.33,46.63 503.44,44.31 C502.74,47.08 500.93,49.99 498.79,51.33 C497.53,52.12 493.12,53.02 489.00,53.32 C481.87,53.85 481.64,53.80 484.34,52.36 C488.35,50.22 486.97,49.57 482.43,51.46 C480.09,52.44 478.42,52.67 478.04,52.07 C477.71,51.53 475.43,51.28 472.97,51.50 C468.68,51.90 468.60,51.86 471.00,50.49 C472.38,49.71 474.44,49.05 475.59,49.04 C476.75,49.02 479.00,47.88 480.59,46.50 C483.94,43.62 483.40,43.39 478.31,45.51 C473.03,47.72 473.33,46.81 479.01,43.44 C485.08,39.84 485.57,38.21 479.75,40.99 C477.41,42.11 476.35,42.45 477.39,41.76 C478.43,41.07 481.27,38.81 483.69,36.76 C488.60,32.60 491.72,31.46 495.59,32.43 C498.92,33.27 502.70,37.08 503.58,40.47 C502.77,38.25 500.87,36.00 499.44,36.00 C498.65,36.00 498.00,35.62 498.00,35.16 C498.00,34.70 496.51,34.27 494.68,34.20 C490.10,34.03 483.63,39.28 484.27,42.65 C484.52,43.95 484.23,45.04 483.61,45.08 C482.94,45.13 483.00,45.36 483.75,45.66 C484.44,45.94 485.00,46.62 485.00,47.17 C485.00,49.01 489.46,51.93 492.32,51.97 C493.86,51.99 496.07,51.50 497.21,50.89 ZM 471.88 75.14 C472.54,75.38 473.00,75.90 473.00,76.50 C473.00,77.32 473.67,78.00 474.50,78.00 C475.33,78.00 476.01,78.79 476.02,79.75 C476.02,80.71 476.43,82.14 476.92,82.91 C477.68,84.11 478.07,84.08 479.44,82.70 C480.34,81.80 481.06,80.83 481.04,80.54 C481.02,80.24 481.00,79.63 481.00,79.17 C481.00,78.23 492.15,76.00 496.87,76.00 C497.25,76.00 497.62,76.02 497.96,76.06 C497.40,76.18 497.00,76.48 497.00,76.84 C497.00,77.30 493.89,78.27 490.09,78.98 L 483.19 80.29 L 480.86 86.14 C478.66,91.68 476.60,94.24 477.69,90.08 C478.09,88.55 477.60,88.08 475.35,87.83 C472.53,87.50 472.50,87.43 472.69,81.25 C472.82,76.92 472.73,75.54 471.88,75.14 ZM 434.48 88.63 C433.45,86.96 432.75,85.20 432.41,83.36 C431.10,76.41 436.80,65.27 443.43,61.80 L 445.50 60.71 L 443.50 63.02 C441.77,65.03 441.73,65.25 443.24,64.70 C444.62,64.20 444.43,64.91 442.32,68.10 C440.39,71.00 439.47,73.99 439.01,78.81 C438.41,85.21 438.35,85.34 437.58,81.75 C436.54,76.90 437.52,71.88 440.14,68.55 C441.29,67.09 441.99,65.65 441.69,65.36 C440.84,64.51 437.02,70.89 435.79,74.89 C436.27,72.21 437.26,69.53 438.65,67.41 C439.52,66.08 440.00,65.00 439.71,65.00 C439.42,65.00 437.82,67.07 436.14,69.60 C431.57,76.51 431.22,83.12 434.48,88.63 ZM 441.60 101.45 C438.28,99.80 435.31,97.91 433.80,96.33 C430.82,93.20 428.00,87.20 428.00,83.97 C428.00,81.01 429.63,82.38 430.34,85.94 C431.43,91.40 438.60,97.62 446.42,100.70 C441.95,99.16 437.98,97.39 436.61,96.10 C433.19,92.89 432.24,93.60 435.46,96.95 C437.07,98.64 439.20,100.16 441.60,101.45 ZM 457.59 44.50 C457.24,43.12 456.68,39.97 456.34,37.50 C455.86,34.00 455.32,33.00 453.86,33.00 C453.72,33.00 453.59,33.00 453.47,33.00 C453.17,32.99 452.93,32.99 452.73,33.01 C452.78,32.87 452.85,32.75 452.93,32.67 C455.10,30.50 456.82,33.04 458.02,40.18 C458.69,44.21 459.58,48.85 459.99,50.50 L 460.73 53.50 L 461.43 50.50 C461.63,49.62 461.93,48.61 462.23,47.73 C462.09,48.68 462.00,49.85 462.00,51.06 C462.00,53.78 461.60,56.00 461.12,56.00 C460.14,56.00 458.70,52.20 458.94,50.25 C459.02,49.56 458.16,49.00 457.02,49.00 C456.33,49.00 455.87,49.09 455.61,49.32 C455.65,48.62 455.80,48.24 456.06,48.15 C456.59,47.97 456.57,47.53 456.05,46.98 C456.21,47.00 456.38,47.00 456.58,47.00 C457.83,47.00 458.07,46.41 457.59,44.50 ZM 463.00 105.00 C465.05,104.35 464.64,104.18 460.80,104.10 C458.38,104.05 454.35,103.16 450.25,101.93 C451.34,102.20 452.43,102.40 453.50,102.52 L 458.50 103.06 L 451.60 100.58 C448.30,99.40 445.39,98.03 442.89,96.51 C447.62,99.27 453.85,101.32 461.38,102.42 C469.75,103.64 473.12,104.06 476.11,103.47 C474.66,103.89 473.13,104.28 471.50,104.63 C464.74,106.09 456.28,106.22 450.87,104.94 C449.92,104.71 448.90,104.42 447.86,104.06 C453.28,105.78 458.99,106.28 463.00,105.00 ZM 461.46 74.96 C460.27,73.72 458.66,72.50 457.39,71.82 L 457.40 71.83 C459.27,72.50 461.35,73.72 462.02,74.53 C462.70,75.34 463.53,75.99 463.87,75.98 C464.22,75.98 462.48,74.05 460.00,71.69 C456.66,68.52 454.94,67.39 454.30,68.11 C454.63,66.86 455.48,66.50 457.75,66.51 C460.84,66.52 461.00,66.34 461.00,62.76 C461.00,60.69 461.47,59.00 462.05,59.00 C462.86,59.00 462.87,64.50 462.06,67.75 C462.03,67.89 460.86,68.00 459.46,68.00 C457.00,68.00 457.04,68.12 460.96,71.85 C463.18,73.96 465.00,76.21 465.00,76.85 C465.00,78.50 464.70,78.34 461.46,74.96 ZM 262.20 143.45 C261.11,142.22 261.18,141.67 262.61,140.24 C263.86,139.00 264.45,138.86 264.75,139.76 C264.98,140.44 265.80,141.00 266.58,141.00 C267.36,141.00 268.00,141.45 268.00,142.00 C268.00,142.55 267.33,143.00 266.50,143.00 C265.67,143.00 265.00,143.45 265.00,144.00 C265.00,145.42 263.72,145.17 262.20,143.45 ZM 465.14 96.79 C462.20,96.25 460.17,95.45 460.64,95.01 C461.56,94.15 472.37,96.03 473.60,97.27 C474.52,98.18 472.04,98.04 465.14,96.79 ZM 466.69 92.63 C467.04,92.55 467.42,92.46 467.83,92.35 C469.58,91.88 469.83,91.51 468.83,90.88 C467.84,90.24 467.81,90.03 468.75,90.02 C469.44,90.01 470.00,89.49 470.00,88.88 C470.00,88.56 469.79,88.35 469.38,88.24 C472.30,88.15 473.72,88.99 474.17,90.95 C474.42,92.04 473.14,92.43 468.76,92.62 C468.05,92.65 467.35,92.65 466.69,92.63 ZM 456.62 83.20 C455.85,81.94 456.89,79.00 458.11,79.00 C459.23,79.00 459.24,81.08 458.11,82.86 C457.57,83.71 457.02,83.83 456.62,83.20 ZM 320.00 141.50 C320.00,139.82 320.18,139.75 322.42,140.61 C324.65,141.46 324.38,143.00 322.00,143.00 C320.89,143.00 320.00,142.33 320.00,141.50 ZM 490.00 40.11 C490.00,38.98 492.60,37.93 493.40,38.74 C494.61,39.94 493.95,41.00 492.00,41.00 C490.90,41.00 490.00,40.60 490.00,40.11 ZM 492.00 59.50 C491.32,60.33 490.08,61.00 489.26,61.00 C488.04,61.00 487.99,60.72 489.00,59.50 C489.68,58.67 490.92,58.00 491.74,58.00 C492.96,58.00 493.01,58.28 492.00,59.50 ZM 440.00 48.00 C440.00,48.55 439.58,49.00 439.06,49.00 C438.54,49.00 437.84,48.55 437.50,48.00 C437.16,47.45 437.58,47.00 438.44,47.00 C439.30,47.00 440.00,47.45 440.00,48.00 ZM 491.00 36.00 C491.00,35.45 491.45,35.00 492.00,35.00 C492.55,35.00 493.00,35.45 493.00,36.00 C493.00,36.55 492.55,37.00 492.00,37.00 C491.45,37.00 491.00,36.55 491.00,36.00 ZM 404.49 99.61 C404.75,98.48 405.03,97.28 405.33,96.00 C418.02,41.41 424.22,16.48 425.26,15.82 C425.26,15.82 425.27,15.81 425.27,15.81 C424.25,16.50 417.38,44.02 407.37,87.50 C406.72,90.33 405.57,95.15 404.49,99.61 ZM 463.23 45.30 C463.46,44.51 463.33,43.73 462.84,43.24 C462.07,42.47 462.05,40.08 462.46,37.62 C462.15,39.86 462.22,42.10 462.91,43.20 C463.48,44.13 463.59,44.86 463.23,45.30 ZM 457.08 64.24 C457.47,63.33 457.23,60.13 456.44,56.00 C456.25,55.02 456.10,54.14 455.97,53.35 C457.20,58.99 457.63,63.13 457.08,64.24 ZM 402.41 118.56 C402.14,118.46 401.95,118.36 401.84,118.24 C401.25,117.65 400.92,117.28 401.15,115.30 C401.06,117.14 401.49,117.99 402.41,118.56 ZM 454.25 69.92 C454.62,70.38 455.37,70.91 456.29,71.36 C456.27,71.35 456.25,71.35 456.22,71.34 C455.11,71.06 454.48,70.63 454.25,69.92 ZM 487.50 98.00 C491.51,94.87 494.55,90.60 497.07,84.69 C494.56,90.58 491.59,94.84 487.50,98.00 ZM 435.65 81.08 C435.85,81.91 436.12,82.75 436.47,83.59 C436.63,83.97 436.82,84.37 437.04,84.78 C436.59,83.97 436.24,83.21 436.02,82.56 C435.87,82.09 435.74,81.60 435.65,81.08 ZM 499.56 78.39 C499.83,77.52 499.91,76.96 499.82,76.60 C499.94,76.69 500.00,76.79 500.00,76.90 C500.00,77.07 499.84,77.60 499.56,78.39 ZM 442.39 91.92 C443.62,93.15 444.72,93.97 445.36,94.00 C445.35,94.00 445.33,94.00 445.32,94.00 C444.70,94.00 443.61,93.17 442.39,91.92 ZM 462.40 91.84 C461.86,90.97 462.21,90.18 463.30,89.55 C462.21,90.20 461.90,90.98 462.41,91.86 C462.41,91.85 462.41,91.85 462.40,91.84 ZM 445.59 93.97 C445.92,93.85 445.78,93.38 445.20,92.80 C445.87,93.47 446.00,93.87 445.59,93.97 ZM 471.00 75.00 C469.41,75.00 468.57,74.50 468.49,73.46 C468.58,74.50 469.43,75.00 471.06,75.00 C471.11,75.00 471.16,75.00 471.21,75.00 C471.14,75.00 471.07,75.00 471.00,75.00 ZM 453.10 39.38 C453.16,39.65 453.21,39.91 453.26,40.16 C453.20,39.90 453.15,39.64 453.10,39.38 ZM 465.14 31.23 C465.19,31.21 465.24,31.19 465.30,31.18 C465.24,31.19 465.19,31.21 465.14,31.23 Z" fill="rgb(111,158,131)"/>
<path d="M 276.14 147.09 C276.33,141.58 276.76,141.34 286.42,141.45 C291.03,141.50 291.40,141.70 292.19,144.50 C292.65,146.15 292.71,148.62 292.32,150.00 C291.71,152.14 291.53,151.86 291.06,148.00 C290.56,144.01 290.21,143.50 288.00,143.50 C285.77,143.50 285.45,143.98 285.06,148.00 L 284.63 152.50 L 284.06 148.00 C283.56,144.02 283.21,143.50 281.00,143.50 C278.77,143.50 278.47,143.97 278.19,147.75 C277.76,153.68 275.92,153.10 276.14,147.09 ZM 403.25 118.97 C400.40,117.83 400.42,116.23 403.38,104.18 C404.69,98.86 406.48,91.35 407.37,87.50 C417.39,43.98 424.26,16.45 425.27,15.81 C425.95,15.38 448.63,15.02 475.68,15.02 C519.07,15.00 525.04,15.19 526.43,16.57 C527.29,17.44 528.00,18.28 528.00,18.44 C528.00,18.60 525.54,29.26 522.53,42.12 C519.51,54.98 514.31,77.20 510.97,91.50 C506.93,108.76 504.33,117.92 503.25,118.75 C501.99,119.71 490.55,119.99 453.56,119.94 C427.13,119.90 404.49,119.47 403.25,118.97 ZM 471.50 104.63 C485.33,101.64 492.10,96.36 497.07,84.69 C498.68,80.89 500.00,77.39 500.00,76.90 C500.00,76.40 498.59,76.00 496.87,76.00 C492.15,76.00 481.00,78.23 481.00,79.17 C481.00,79.63 481.02,80.24 481.04,80.54 C481.06,80.83 480.34,81.80 479.44,82.70 C478.07,84.08 477.68,84.11 476.92,82.91 C476.43,82.14 476.02,80.71 476.02,79.75 C476.01,78.79 475.33,78.00 474.50,78.00 C473.67,78.00 473.00,77.32 473.00,76.50 C473.00,75.68 472.13,75.00 471.06,75.00 C468.01,75.00 467.68,73.26 470.01,69.48 C471.52,67.04 472.89,66.00 474.61,66.00 C477.98,66.00 478.61,63.58 476.38,59.20 C474.08,54.68 473.26,54.03 469.75,54.02 C467.36,54.00 467.00,53.60 467.00,51.00 C467.00,49.35 466.49,48.00 465.88,48.00 C465.11,48.00 465.07,47.60 465.75,46.75 C466.30,46.06 466.83,42.20 466.91,38.17 C467.06,31.63 466.88,30.88 465.30,31.18 C463.15,31.59 461.13,41.53 462.84,43.24 C463.45,43.85 463.51,44.91 462.99,45.88 C462.51,46.77 461.81,48.85 461.43,50.50 L 460.73 53.50 L 459.99 50.50 C459.58,48.85 458.69,44.21 458.02,40.18 C456.82,33.04 455.10,30.50 452.93,32.67 C451.65,33.95 453.86,45.17 455.69,46.65 C456.54,47.34 456.69,47.94 456.06,48.15 C455.34,48.39 455.47,50.91 456.44,56.00 C457.30,60.48 457.51,63.87 456.97,64.42 C456.42,64.97 455.86,64.77 455.55,63.92 C455.26,63.14 453.22,57.60 451.01,51.61 C448.81,45.62 447.00,40.11 447.00,39.36 C447.00,38.02 443.88,37.45 442.75,38.58 C441.71,39.63 445.21,48.46 447.38,50.23 C449.12,51.65 449.21,51.96 447.85,51.98 C446.43,52.00 446.60,53.06 449.14,59.75 C451.94,67.15 452.28,70.75 450.60,75.50 C449.98,77.24 450.10,77.21 451.57,75.25 C452.49,74.01 454.20,73.01 455.37,73.03 C457.26,73.06 457.32,73.20 455.90,74.29 C453.81,75.88 449.77,83.81 450.28,85.32 C450.50,85.97 449.96,87.06 449.09,87.75 C447.65,88.88 447.69,89.15 449.44,90.50 C451.31,91.94 451.28,92.00 448.69,92.00 C446.67,92.00 446.00,91.50 446.00,90.00 C446.00,88.90 445.55,88.00 445.00,88.00 C443.61,88.00 443.75,91.35 445.20,92.80 C445.87,93.47 445.96,94.00 445.40,94.00 C443.62,94.00 438.15,87.62 436.47,83.59 C435.39,81.01 435.06,78.45 435.49,76.09 C436.16,72.35 440.75,64.42 441.69,65.36 C441.99,65.65 441.29,67.09 440.14,68.55 C437.52,71.88 436.54,76.90 437.58,81.75 C438.35,85.34 438.41,85.21 439.01,78.81 C439.47,73.99 440.39,71.00 442.32,68.10 C444.43,64.91 444.62,64.20 443.24,64.70 C441.73,65.25 441.77,65.03 443.50,63.02 L 445.50 60.71 L 443.43 61.80 C436.80,65.27 431.10,76.41 432.41,83.36 C433.76,90.56 440.47,96.59 451.60,100.58 L 458.50 103.06 L 453.50 102.52 C443.48,101.44 431.76,93.05 430.34,85.94 C429.63,82.38 428.00,81.01 428.00,83.97 C428.00,87.20 430.82,93.20 433.80,96.33 C436.70,99.37 444.98,103.55 450.87,104.94 C456.28,106.22 464.74,106.09 471.50,104.63 ZM 492.00 59.50 C493.01,58.28 492.96,58.00 491.74,58.00 C490.92,58.00 489.68,58.67 489.00,59.50 C487.99,60.72 488.04,61.00 489.26,61.00 C490.08,61.00 491.32,60.33 492.00,59.50 ZM 498.79 51.33 C501.99,49.34 504.43,43.84 503.59,40.52 C502.74,37.11 498.94,33.27 495.59,32.43 C491.72,31.46 488.60,32.60 483.69,36.76 C481.27,38.81 478.43,41.07 477.39,41.76 C476.35,42.45 477.41,42.11 479.75,40.99 C485.57,38.21 485.08,39.84 479.01,43.44 C473.33,46.81 473.03,47.72 478.31,45.51 C483.40,43.39 483.94,43.62 480.59,46.50 C479.00,47.88 476.75,49.02 475.59,49.04 C474.44,49.05 472.38,49.71 471.00,50.49 C468.60,51.86 468.68,51.90 472.97,51.50 C475.43,51.28 477.71,51.53 478.04,52.07 C478.42,52.67 480.09,52.44 482.43,51.46 C486.97,49.57 488.35,50.22 484.34,52.36 C481.64,53.80 481.87,53.85 489.00,53.32 C493.12,53.02 497.53,52.12 498.79,51.33 ZM 440.00 48.00 C440.00,47.45 439.30,47.00 438.44,47.00 C437.58,47.00 437.16,47.45 437.50,48.00 C437.84,48.55 438.54,49.00 439.06,49.00 C439.58,49.00 440.00,48.55 440.00,48.00 ZM 449.43 32.53 C452.38,30.22 450.34,29.36 447.30,31.63 C444.06,34.05 442.75,36.78 445.63,35.11 C446.66,34.52 448.37,33.36 449.43,32.53 ZM 460.88 28.98 C460.12,28.58 458.49,27.93 457.25,27.55 C453.99,26.56 454.46,28.65 457.75,29.78 C460.73,30.81 463.13,30.19 460.88,28.98 ZM 158.52 116.03 C158.00,115.18 163.20,82.51 164.61,77.75 C165.00,76.47 166.19,76.00 169.07,76.00 C173.85,76.00 173.78,75.22 170.50,93.55 C169.13,101.22 168.01,108.06 168.00,108.75 C168.00,109.65 170.36,110.00 176.50,110.00 C185.42,110.00 185.61,110.12 184.37,114.75 C183.79,116.93 183.38,117.00 171.44,117.00 C164.54,117.00 158.85,116.57 158.52,116.03 ZM 191.65 116.25 C191.38,115.80 192.68,106.90 194.55,96.47 C196.41,86.04 197.96,77.16 197.97,76.75 C197.99,76.34 203.88,76.00 211.06,76.00 L 224.13 76.00 L 223.81 79.25 L 223.50 82.50 L 214.38 82.79 L 205.25 83.07 L 204.69 87.24 C204.39,89.53 204.36,91.77 204.63,92.20 C204.90,92.64 208.39,93.00 212.39,93.00 L 219.65 93.00 L 219.22 95.96 L 218.78 98.92 L 210.67 99.21 L 202.55 99.50 L 201.80 103.89 C201.39,106.31 201.30,108.67 201.59,109.14 C201.88,109.61 205.72,110.00 210.12,110.00 L 218.13 110.00 L 217.81 113.25 L 217.50 116.50 L 204.83 116.78 C197.86,116.93 191.93,116.69 191.65,116.25 ZM 222.64 116.23 C222.38,115.80 226.95,106.58 232.79,95.73 L 243.43 76.00 L 248.71 76.00 C251.62,76.00 254.01,76.34 254.02,76.75 C254.03,77.16 255.60,85.82 257.51,96.00 C259.43,106.18 261.00,115.09 261.00,115.81 C261.00,116.73 259.74,117.02 256.75,116.81 C252.64,116.51 252.47,116.36 251.56,112.25 L 250.62 108.00 L 242.79 108.00 L 234.97 108.00 L 232.79 112.50 C230.78,116.64 230.30,117.00 226.86,117.00 C224.80,117.00 222.90,116.65 222.64,116.23 ZM 248.61 95.37 C247.53,86.16 246.66,85.75 243.11,92.79 C241.40,96.17 240.00,99.41 240.00,99.97 C240.00,100.54 242.09,101.00 244.64,101.00 L 249.28 101.00 L 248.61 95.37 ZM 273.76 114.94 C263.59,109.57 263.35,91.91 273.30,82.05 C278.42,76.98 285.91,74.47 293.29,75.35 C300.51,76.20 304.57,79.41 306.46,85.75 C307.09,87.86 306.84,88.00 302.43,88.00 C298.64,88.00 297.26,87.49 295.30,85.37 C293.12,83.03 292.36,82.82 288.25,83.38 C279.89,84.53 276.22,88.50 275.30,97.39 C274.60,104.19 276.37,107.46 281.54,108.88 C286.05,110.13 290.71,108.70 293.75,105.14 C297.16,101.12 296.65,100.00 291.39,100.00 C287.60,100.00 286.89,99.72 287.39,98.42 C287.73,97.55 288.00,96.20 288.00,95.42 C288.00,94.30 289.90,94.00 297.00,94.00 C307.43,94.00 306.74,92.77 304.20,107.00 L 302.50 116.50 L 298.75 116.81 C295.53,117.08 295.00,116.83 295.00,115.06 C295.00,112.56 295.28,112.56 290.50,115.00 C285.52,117.54 278.64,117.51 273.76,114.94 ZM 318.37 115.41 C316.65,114.56 314.46,112.42 313.51,110.64 C311.52,106.96 311.64,104.25 314.56,87.25 L 316.49 76.00 L 320.74 76.00 C323.08,76.00 325.00,76.34 324.99,76.75 C324.99,77.16 324.09,82.68 323.00,89.00 C321.91,95.32 321.01,101.67 321.01,103.10 C320.99,108.77 328.61,111.00 333.45,106.75 C335.64,104.83 336.37,102.54 338.50,91.00 C339.86,83.57 340.99,77.16 340.99,76.75 C341.00,76.34 343.03,76.00 345.52,76.00 C349.69,76.00 350.00,76.17 349.53,78.25 C349.26,79.49 348.33,84.78 347.48,90.00 C345.35,103.00 343.52,108.12 339.73,111.69 C334.15,116.94 324.79,118.58 318.37,115.41 ZM 350.98 115.25 C350.97,114.29 352.40,105.06 354.17,94.75 L 357.37 76.00 L 370.70 76.00 L 384.04 76.00 L 383.38 78.75 C382.36,83.01 382.39,83.00 373.46,83.00 C364.26,83.00 364.60,82.76 363.78,90.00 C363.50,92.46 363.63,92.51 371.36,92.79 C378.91,93.08 379.19,93.17 378.62,95.29 C378.29,96.51 378.02,97.84 378.01,98.25 C378.01,98.66 374.46,99.00 370.13,99.00 L 362.27 99.00 L 361.28 103.98 C360.74,106.72 360.53,109.20 360.81,109.48 C361.10,109.77 365.09,110.00 369.69,110.00 L 378.04 110.00 L 377.38 112.75 C377.02,114.26 376.53,115.84 376.30,116.25 C376.07,116.66 370.28,117.00 363.44,117.00 C352.27,117.00 351.00,116.82 350.98,115.25 ZM 158.55 59.08 C158.03,58.24 162.46,30.27 164.55,21.14 C165.09,18.81 165.21,18.79 176.45,19.15 C189.29,19.56 191.15,20.44 193.15,27.10 C194.14,30.41 193.99,31.45 191.89,35.67 C188.80,41.87 184.83,44.14 175.94,44.77 L 169.04 45.27 L 168.41 48.88 C166.48,59.90 166.70,59.48 162.80,59.80 C160.81,59.97 158.90,59.65 158.55,59.08 ZM 179.71 36.95 C184.42,35.31 186.14,29.21 182.57,26.77 C181.98,26.36 179.44,26.02 176.92,26.02 L 172.33 26.00 L 171.34 31.50 C170.79,34.53 170.56,37.23 170.84,37.50 C171.69,38.35 176.56,38.05 179.71,36.95 ZM 194.98 58.25 C194.96,57.29 196.41,48.06 198.20,37.75 L 201.45 19.00 L 211.08 19.00 C222.44,19.00 226.53,20.18 228.53,24.06 C231.64,30.07 229.70,36.90 223.70,41.01 L 220.27 43.36 L 222.62 50.93 C223.91,55.09 224.98,58.86 224.99,59.30 C224.99,59.75 222.90,59.97 220.34,59.80 L 215.68 59.50 L 213.56 52.00 C211.65,45.24 211.18,44.47 208.76,44.19 C205.84,43.85 206.07,43.34 203.97,54.25 L 202.86 60.00 L 198.93 60.00 C195.86,60.00 194.99,59.62 194.98,58.25 ZM 219.04 35.46 C221.60,33.15 221.61,28.40 219.07,27.04 C218.00,26.47 215.36,26.00 213.20,26.00 L 209.27 26.00 L 208.23 31.25 C207.66,34.14 207.43,36.89 207.73,37.36 C208.60,38.78 216.92,37.38 219.04,35.46 ZM 232.59 59.15 C232.16,58.45 236.76,29.11 238.53,21.25 C239.02,19.06 239.37,19.00 252.02,19.00 C265.71,19.00 265.65,18.98 264.37,23.75 C263.80,25.87 263.25,26.00 255.01,26.00 L 246.26 26.00 L 245.61 30.06 C245.25,32.29 245.22,34.54 245.54,35.06 C245.86,35.58 249.24,36.00 253.06,36.00 L 260.00 36.00 L 260.00 38.96 L 260.00 41.92 L 251.79 42.21 L 243.58 42.50 L 242.76 46.46 C241.49,52.63 241.95,53.00 250.97,53.00 C258.22,53.00 259.00,53.19 259.00,54.92 C259.00,59.82 258.53,60.00 245.45,60.00 C238.67,60.00 232.88,59.62 232.59,59.15 ZM 265.75 59.25 C265.54,58.84 266.94,49.61 268.85,38.75 L 272.33 19.00 L 277.64 19.00 L 282.94 19.00 L 286.56 30.50 C288.56,36.83 290.48,42.00 290.84,41.99 C291.20,41.99 294.86,36.82 298.97,30.49 L 306.45 19.00 L 311.80 19.00 C317.12,19.00 317.15,19.02 316.57,21.75 C315.76,25.52 310.03,58.32 310.01,59.25 C310.01,59.66 308.23,60.00 306.06,60.00 C303.89,60.00 301.92,59.66 301.68,59.25 C301.25,58.53 304.50,38.83 305.47,36.25 C306.82,32.64 303.81,36.10 298.25,44.52 C292.76,52.84 291.64,54.00 289.12,54.00 C285.41,54.00 284.70,53.02 281.92,44.00 C279.09,34.83 278.41,33.90 277.67,38.18 C277.36,40.00 276.35,45.66 275.44,50.75 L 273.79 60.00 L 269.96 60.00 C267.84,60.00 265.95,59.66 265.75,59.25 ZM 318.51 58.81 C318.00,57.40 324.34,20.33 325.24,19.42 C325.55,19.12 327.55,19.02 329.70,19.19 L 333.60 19.50 L 330.05 39.50 L 326.50 59.50 L 322.74 59.81 C320.31,60.01 318.82,59.66 318.51,58.81 ZM 335.00 58.25 C335.00,57.29 336.43,48.06 338.18,37.75 L 341.36 19.00 L 354.70 19.00 L 368.04 19.00 L 367.38 21.75 C366.36,26.01 366.38,26.00 357.56,26.00 C348.44,26.00 348.05,26.30 348.01,33.25 L 348.00 36.00 L 355.62 36.00 C363.03,36.00 363.22,36.06 362.63,38.25 C362.30,39.49 362.02,40.84 362.01,41.25 C362.01,41.66 358.46,42.00 354.12,42.00 L 346.25 42.00 L 345.62 45.12 C344.05,52.99 344.06,53.00 353.50,53.00 C358.17,53.00 362.00,53.42 362.00,53.93 C362.00,54.45 361.56,56.02 361.02,57.43 C360.05,60.00 360.05,60.00 347.52,60.00 C336.26,60.00 335.00,59.82 335.00,58.25 ZM 368.62 59.19 C368.14,58.41 372.77,28.65 374.54,21.14 C375.09,18.81 375.21,18.79 386.45,19.15 C399.05,19.55 401.30,20.54 402.84,26.42 C404.18,31.49 402.55,36.12 398.00,40.19 L 393.88 43.88 L 395.94 50.54 C398.84,59.94 398.79,60.17 393.75,59.81 L 389.50 59.50 L 387.06 51.75 C384.80,44.60 384.41,44.00 381.91,44.00 C379.32,44.00 379.15,44.33 377.85,51.75 L 376.50 59.50 L 372.84 59.80 C370.83,59.97 368.93,59.69 368.62,59.19 ZM 392.47 36.03 C393.31,35.33 394.00,33.25 394.00,31.41 C394.00,27.44 391.93,26.00 386.20,26.00 C382.28,26.00 382.27,26.02 381.64,30.64 C380.56,38.51 380.43,38.31 385.97,37.78 C388.70,37.51 391.62,36.73 392.47,36.03 ZM 462.45 91.91 C461.50,90.38 463.03,89.14 466.78,88.39 C468.88,87.97 470.00,88.14 470.00,88.88 C470.00,89.49 469.44,90.01 468.75,90.02 C467.81,90.03 467.84,90.24 468.83,90.88 C469.83,91.51 469.58,91.88 467.83,92.35 C464.47,93.25 463.21,93.15 462.45,91.91 ZM 462.02 74.53 C461.35,73.72 459.27,72.50 457.40,71.83 C455.53,71.15 454.00,70.04 454.00,69.36 C454.00,66.88 455.59,67.50 460.00,71.69 C462.48,74.05 464.22,75.98 463.87,75.98 C463.53,75.99 462.70,75.34 462.02,74.53 Z" fill="rgb(248,250,249)"/>
</g>
</svg>